<?xml version="1.0" encoding="utf-8"?>
<!-- Generator: Adobe Illustrator 24.2.3, SVG Export Plug-In . SVG Version: 6.00 Build 0)  -->
<svg version="1.1" id="Layer_1" xmlns="http://www.w3.org/2000/svg" xmlns:xlink="http://www.w3.org/1999/xlink" x="0px" y="0px"
	 viewBox="0 0 608 258" style="enable-background:new 0 0 608 258;" xml:space="preserve">
<style type="text/css">
	.st0{fill:#3A3C42;}
	.st1{fill:#9CCD62;}
	.st2{fill:#FFFFFF;}
</style>
<path class="st0" d="M358.85,66.3c-0.18-0.21-0.37-0.43-0.57-0.63L314.4,21.79c-3.83-3.83-10.09-3.83-13.91,0l-43.88,43.88
	c-2.05,2.05-2.99,4.8-2.84,7.5c0,0.09-0.01,0.18-0.01,0.27v88.54c0,5.41,4.43,9.84,9.84,9.84h88.54c5.41,0,9.84-4.43,9.84-9.84
	V73.45C361.96,70.64,360.76,68.1,358.85,66.3z"/>
<g>
	<path class="st0" d="M113.08,222.66v-22.07l-7.02,15.52h-6.14l-7.02-15.52v22.07H81.38v-41.91h12.57l9.03,19.71l9.09-19.71h12.51
		v41.91H113.08z"/>
	<path class="st0" d="M128.72,207.13c0-8.56,5.9-16.11,17-16.11c11.1,0,17,7.55,17,16.11c0,8.5-5.9,16.11-17,16.11
		C134.62,223.25,128.72,215.63,128.72,207.13z M145.72,213.8c3.19,0,5.49-2.54,5.49-6.67s-2.3-6.67-5.49-6.67
		c-3.19,0-5.49,2.54-5.49,6.67S142.53,213.8,145.72,213.8z"/>
	<path class="st0" d="M187.75,201.17c-4.31,0-8.14,0.88-9.86,3.07v18.42h-11.21v-31.04h10.27v5.9c2.18-4.13,5.67-6.49,9.38-6.49
		c0.83,0,1.12,0,1.42,0.06V201.17z"/>
	<path class="st0" d="M213.07,220.94c-3.13,1.36-6.91,2.36-10.33,2.36c-5.08,0-9.33-2.3-9.33-9.03v-14.22h-3.84v-8.44h3.84v-9.74
		h11.21v9.74h6.08v8.44h-6.08v10.27c0,2.07,0.94,2.77,2.42,2.77c1.12,0,2.6-0.41,4.01-1L213.07,220.94z"/>
	<path class="st0" d="M214.43,207.07c0-9.27,5.96-16.05,14.46-16.05c4.43,0,7.97,1.83,9.92,5.19v-4.6h9.74v28.21
		c0,9.68-7.55,16-18.89,16c-6.55,0-11.33-2.13-15.11-5.96l5.9-6.14c2.24,2.13,5.61,3.78,9.21,3.78c4.07,0,7.67-2.13,7.67-7.67v-2.01
		c-1.77,3.25-5.43,4.84-9.38,4.84C219.86,222.66,214.43,215.87,214.43,207.07z M237.33,210.62v-5.55c-1.12-2.83-3.48-4.6-5.84-4.6
		c-3.19,0-5.61,3.13-5.61,6.91c0,3.84,2.54,6.43,6.08,6.43C234.2,213.8,235.85,212.74,237.33,210.62z"/>
	<path class="st0" d="M252.5,213.27c0-6.26,5.55-10.62,13.4-10.62c2.42,0,4.66,0.41,6.26,1.18v-0.94c0-2.89-1.59-4.31-5.37-4.31
		c-3.48,0-6.32,1.18-9.62,3.36l-3.25-6.96c4.13-2.66,8.68-3.96,13.99-3.96c9.86,0,15.46,4.49,15.46,13.22v6.02
		c0,2.13,0.65,2.83,2.71,2.95v9.44c-2.07,0.41-3.9,0.59-5.31,0.59c-4.01,0-6.02-1.48-6.61-4.31l-0.24-1.12
		c-2.77,3.54-6.49,5.43-10.56,5.43C257.16,223.25,252.5,219,252.5,213.27z M270.68,214.04c0.88-0.59,1.48-1.42,1.48-2.18v-2.3
		c-1.3-0.47-3.07-0.83-4.31-0.83c-2.71,0-4.78,1.53-4.78,3.54c0,1.71,1.54,2.95,3.66,2.95
		C268.08,215.22,269.62,214.75,270.68,214.04z"/>
	<path class="st0" d="M288.27,207.07c0-9.27,5.96-16.05,14.46-16.05c4.43,0,7.97,1.83,9.92,5.19v-4.6h9.74v28.21
		c0,9.68-7.55,16-18.89,16c-6.55,0-11.33-2.13-15.11-5.96l5.9-6.14c2.24,2.13,5.61,3.78,9.21,3.78c4.07,0,7.67-2.13,7.67-7.67v-2.01
		c-1.77,3.25-5.43,4.84-9.38,4.84C293.7,222.66,288.27,215.87,288.27,207.07z M311.17,210.62v-5.55c-1.12-2.83-3.48-4.6-5.84-4.6
		c-3.19,0-5.61,3.13-5.61,6.91c0,3.84,2.54,6.43,6.08,6.43C308.04,213.8,309.69,212.74,311.17,210.62z"/>
	<path class="st0" d="M326.34,207.55c0-8.97,5.9-16.53,17-16.53s17,7.55,17,16.11c0,1.18-0.12,2.48-0.29,3.42h-21.78
		c0.24,3.31,2.83,4.66,5.43,4.66c2.42,0,4.9-1.18,5.61-3.13l9.5,2.71c-2.54,4.96-7.91,8.44-15.46,8.44
		C332.42,223.25,326.34,215.87,326.34,207.55z M348.3,203.83c-0.35-3.01-2.3-4.84-5.14-4.84c-2.83,0-4.78,1.83-5.13,4.84H348.3z"/>
	<path class="st0" d="M409.03,190.78h-12.04v31.87h-11.51v-31.87h-12.1v-10.03h35.65V190.78z"/>
	<path class="st0" d="M406.32,207.13c0-8.56,5.9-16.11,17-16.11c11.1,0,17,7.55,17,16.11c0,8.5-5.9,16.11-17,16.11
		C412.22,223.25,406.32,215.63,406.32,207.13z M423.32,213.8c3.19,0,5.49-2.54,5.49-6.67s-2.3-6.67-5.49-6.67
		c-3.19,0-5.49,2.54-5.49,6.67S420.13,213.8,423.32,213.8z"/>
	<path class="st0" d="M442.56,207.13c0-8.56,5.9-16.11,17-16.11c11.1,0,17,7.55,17,16.11c0,8.5-5.9,16.11-17,16.11
		C448.47,223.25,442.56,215.63,442.56,207.13z M459.56,213.8c3.19,0,5.49-2.54,5.49-6.67s-2.3-6.67-5.49-6.67
		c-3.19,0-5.49,2.54-5.49,6.67S456.38,213.8,459.56,213.8z"/>
	<path class="st0" d="M480.34,179.57h11.21v29.98c0,2.3,1,3.54,2.89,3.54c0.94,0,2.13-0.35,3.07-0.88l1.42,9.03
		c-2.66,1.24-6.31,2.01-9.27,2.01c-5.96,0-9.33-3.19-9.33-8.97V179.57z"/>
	<path class="st0" d="M499.52,219.53l4.31-7.61c4.31,2.24,8.32,3.48,11.69,3.48c2.01,0,2.95-0.47,2.95-1.48
		c0-1.06-1.24-1.65-5.67-2.77c-8.79-2.3-11.69-4.6-11.69-9.27c0-6.37,5.55-10.92,13.28-10.92c4.13,0,9.03,1.24,13.99,3.48
		l-4.31,7.14c-4.37-2.07-7.02-2.89-9.68-2.89c-1.71,0-2.89,0.53-2.89,1.59c0,1.18,1.12,1.71,5.25,2.71
		c9.5,2.42,12.51,4.84,12.51,9.92c0,6.37-5.19,10.33-13.52,10.33C510.5,223.25,503.54,221.65,499.52,219.53z"/>
</g>
<path class="st1" d="M355.12,61.38c-0.18-0.21-0.37-0.43-0.57-0.63l-43.88-43.88c-3.83-3.83-10.09-3.83-13.91,0l-43.88,43.88
	c-2.05,2.05-2.99,4.8-2.84,7.5c0,0.09-0.01,0.18-0.01,0.27v88.54c0,5.41,4.43,9.84,9.84,9.84h88.54c5.41,0,9.84-4.43,9.84-9.84
	V68.53C358.23,65.72,357.03,63.18,355.12,61.38z"/>
<path class="st2" d="M338.09,77.95c-0.12-0.14-0.24-0.28-0.38-0.42l-29.23-29.23c-2.55-2.55-6.72-2.55-9.27,0l-29.23,29.23
	c-1.37,1.37-1.99,3.2-1.89,5c0,0.06-0.01,0.12-0.01,0.18v58.97c0,3.6,2.95,6.55,6.55,6.55h58.97c3.6,0,6.55-2.95,6.55-6.55V82.71
	C340.16,80.84,339.36,79.15,338.09,77.95z"/>
<g>
	<path class="st1" d="M297.3,114.48c0.66,2.7,3.79,4.89,6.49,4.96c1.75,0.15,3.65-0.58,4.45-2.41c0.95-2.33-0.22-5.03-3.72-6.57
		c-7.37-3.28-14.88-5.11-14.88-15.03c0-7.52,3.5-11.97,11.16-12.77l-0.22-4.31h7l-0.22,4.23c3.58,0.15,7.59,1.75,10.29,5.18
		l-6.64,6.86c-0.66-2.7-3.58-4.38-6.13-4.38c-2.85-0.07-5.62,1.61-5.47,4.82c0,5.47,6.71,6.42,10.73,8.1
		c5.25,2.19,8.54,5.98,8.39,12.11c-0.07,5.98-4.23,11.46-10.94,11.67l0.29,4.45h-7l0.22-4.31c-3.94-0.44-8.46-2.48-11.24-7.37
		L297.3,114.48z"/>
</g>
<g>
	<path class="st1" d="M425.24,239.92v1.59h-0.29v-10.77h0.29v4.9c0.78-1.11,1.79-1.9,3.13-1.9c2.24,0,3.56,2.08,3.56,3.97
		c0,2.08-1.61,3.95-3.69,3.95C427.03,241.66,425.85,240.89,425.24,239.92z M431.63,237.7c0-1.89-1.33-3.67-3.26-3.67
		c-1.46,0-2.55,1.06-3.13,2.23v2.79c0.07,1.25,1.8,2.32,3,2.32C430.22,241.36,431.63,239.52,431.63,237.7z"/>
	<path class="st1" d="M434.25,244.51c0.34,0,0.62-0.06,0.69-0.15c0.06-0.07,0.27-0.52,1.28-2.85l-3.56-7.66h0.33l3.38,7.29l3.2-7.29
		h0.32l-4.56,10.4c-0.12,0.27-0.28,0.43-0.49,0.47c-0.18,0.04-0.4,0.07-0.61,0.07V244.51z"/>
	<path class="st1" d="M445.13,241.51v-10.48h0.29v10.18h6.58v0.29H445.13z"/>
	<path class="st1" d="M452.6,237.7c0-2.15,1.67-3.97,3.64-3.97c1.98,0,3.64,1.82,3.64,3.97c0,2.14-1.64,3.95-3.64,3.95
		C454.22,241.66,452.6,239.84,452.6,237.7z M456.23,241.36c1.83,0,3.36-1.68,3.36-3.67c0-1.98-1.53-3.66-3.35-3.66
		c-1.81,0-3.35,1.7-3.35,3.7C452.9,239.71,454.4,241.36,456.23,241.36z"/>
	<path class="st1" d="M464.97,233.73c1.28,0,2.36,0.63,2.88,1.71l-0.29,0.1c-0.5-0.94-1.51-1.52-2.63-1.52
		c-1.87,0-3.35,1.59-3.35,3.61s1.54,3.72,3.36,3.72c1.2,0,2.48-0.77,2.71-1.61l0.3,0.09c-0.34,1.03-1.64,1.81-2.97,1.81
		c-2.02,0-3.7-1.81-3.7-4.01C461.28,235.45,462.89,233.73,464.97,233.73z"/>
	<path class="st1" d="M469.11,239.31c0-1.28,1.3-2.18,3.16-2.18c0.87,0,1.84,0.16,2.57,0.43v-0.87c0-1.59-1-2.66-2.51-2.66
		c-0.74,0-1.62,0.34-2.48,0.94l-0.18-0.24c0.97-0.66,1.86-1,2.66-1c1.71,0,2.8,1.15,2.8,2.95v4.24c0,0.19,0.09,0.29,0.24,0.29v0.29
		c-0.12,0-0.16,0-0.21-0.03c-0.19-0.07-0.32-0.31-0.32-0.56v-0.71c-0.71,0.92-1.92,1.45-3.25,1.45
		C470.21,241.66,469.11,240.63,469.11,239.31z M474.62,240.01c0.15-0.21,0.22-0.43,0.22-0.61v-1.52c-0.8-0.31-1.65-0.46-2.57-0.46
		c-1.71,0-2.86,0.75-2.86,1.89c0,1.15,0.96,2.05,2.18,2.05C472.91,241.36,474.09,240.83,474.62,240.01z"/>
	<path class="st1" d="M477.6,230.74h0.29v9.64c0,0.58,0.38,0.93,0.97,0.93c0.22,0,0.56-0.06,0.81-0.13l0.1,0.24
		c-0.27,0.09-0.75,0.18-1.02,0.18c-0.69,0-1.17-0.49-1.17-1.21V230.74z"/>
	<path class="st1" d="M480.52,241.51v-10.48h4.81c2.05,0,3.53,1.84,3.53,3.63c0,1.21-0.56,2.33-1.5,3l2.36,3.85h-3.25l-1.99-3.22
		h-1.08v3.22H480.52z M483.4,235.79h1.81c0.35,0,0.72-0.41,0.72-1.12c0-0.72-0.44-1.12-0.8-1.12h-1.74V235.79z"/>
	<path class="st1" d="M489.67,237.73c0-2.24,1.48-4.13,4.25-4.13c2.77,0,4.25,1.89,4.25,4.03c0,0.29-0.03,0.62-0.07,0.86h-5.45
		c0.06,0.83,0.71,1.17,1.36,1.17c0.61,0,1.22-0.29,1.4-0.78l2.38,0.68c-0.63,1.24-1.98,2.11-3.87,2.11
		C491.19,241.66,489.67,239.81,489.67,237.73z M495.16,236.8c-0.09-0.75-0.58-1.21-1.28-1.21c-0.71,0-1.2,0.46-1.28,1.21H495.16z"/>
	<path class="st1" d="M498.67,239.17c0-1.56,1.39-2.66,3.35-2.66c0.6,0,1.17,0.1,1.56,0.29v-0.24c0-0.72-0.4-1.08-1.34-1.08
		c-0.87,0-1.58,0.3-2.41,0.84l-0.81-1.74c1.03-0.66,2.17-0.99,3.5-0.99c2.46,0,3.87,1.12,3.87,3.31v1.5c0,0.53,0.16,0.71,0.68,0.74
		v2.36c-0.52,0.1-0.97,0.15-1.33,0.15c-1,0-1.5-0.37-1.65-1.08l-0.06-0.28c-0.69,0.89-1.62,1.36-2.64,1.36
		C499.84,241.66,498.67,240.6,498.67,239.17z M503.22,239.36c0.22-0.15,0.37-0.35,0.37-0.55v-0.58c-0.33-0.12-0.77-0.21-1.08-0.21
		c-0.68,0-1.2,0.38-1.2,0.89c0,0.43,0.38,0.74,0.91,0.74C502.57,239.65,502.95,239.53,503.22,239.36z"/>
	<path class="st1" d="M507.97,230.74h2.8v7.5c0,0.58,0.25,0.88,0.72,0.88c0.24,0,0.53-0.09,0.77-0.22l0.35,2.26
		c-0.66,0.31-1.58,0.5-2.32,0.5c-1.49,0-2.33-0.8-2.33-2.24V230.74z"/>
	<path class="st1" d="M518.52,241.08c-0.78,0.34-1.73,0.59-2.58,0.59c-1.27,0-2.33-0.58-2.33-2.26v-3.56h-0.96v-2.11h0.96v-2.43h2.8
		v2.43h1.52v2.11h-1.52v2.57c0,0.52,0.24,0.69,0.6,0.69c0.28,0,0.65-0.1,1-0.25L518.52,241.08z"/>
	<path class="st1" d="M519.09,242.29c0.44,0.16,0.84,0.25,1.15,0.25c0.61,0,0.93-0.34,0.99-1.03l-2.82-7.76h2.88l1.48,5.39l1.2-5.39
		h2.61l-2.63,8.69c-0.46,1.52-1.82,2.52-3.41,2.52c-0.49,0-0.97-0.09-1.45-0.28V242.29z"/>
</g>
</svg>
